<?xml version="1.0" encoding="utf-8"?>
<!-- Generator: Adobe Illustrator 26.4.1, SVG Export Plug-In . SVG Version: 6.00 Build 0)  -->
<svg version="1.1" id="Capa_1" xmlns="http://www.w3.org/2000/svg" xmlns:xlink="http://www.w3.org/1999/xlink" x="0px" y="0px"
	 viewBox="0 0 580 170" style="enable-background:new 0 0 580 170;" xml:space="preserve">
<style type="text/css">
	.st0{fill:#C24152;}
	.st1{fill:#C13A4D;}
	.st2{fill:#C24253;}
	.st3{fill:#C1394D;}
	.st4{fill:#E5BA37;}
	.st5{fill:#E1AA33;}
	.st6{fill:#E2AB34;}
	.st7{fill:#C34655;}
	.st8{fill:#E2AB33;}
	.st9{fill:#E5BB39;}
	.st10{fill:#E4B737;}
	.st11{fill:#E4B837;}
	.st12{fill:#E5BA39;}
</style>
<g id="Z">
	<path class="st0" d="M66.69,125.47c-7.65,0-15.31,0.15-22.96-0.06c-4.77-0.13-9.97,0.03-11.82-6.02
		c-2.45-8.02-0.74-14.28,5.19-18.1c5.86-3.78,11.88-7.32,17.8-11.01c3.4-2.12,6.46-4.65,8.9-7.89c3.77-5,2.62-8.28-3.67-9.31
		c-5.73-0.93-11.54-1.31-17.38-1.45c-9.69-0.22-11.43-2.1-11.79-11.9c-0.58-15.52-0.57-15.8,15-15.36
		c16.44,0.46,32.86,1.56,49.29,2.28c4.69,0.2,6.95,2.67,7.39,7.08c0.88,8.93-1.87,16.34-9.22,21.84c-6.68,5-12.62,10.82-18.05,17.14
		c-1.92,2.24-4.42,4.7-3.29,7.88c1.22,3.41,4.74,3.83,7.93,4.1c4.14,0.35,8.28,0.6,12.43,0.78c5.54,0.24,7.23,1.74,8.03,7.39
		c0.91,6.5-0.81,10.31-5.45,11.87c-4.7,1.58-9.57,0.74-14.37,0.86c-4.65,0.12-9.31,0.03-13.97,0.03
		C66.69,125.58,66.69,125.52,66.69,125.47z"/>
</g>
<g id="T">
	<path class="st1" d="M321.87,54.88c7.66,0,15.32,0.13,22.97-0.05c3.62-0.09,5.18,1.34,5.23,4.9c0.07,5.15,0.25,10.31,0.51,15.45
		c0.15,3.01-0.89,4.66-4.09,5.01c-3.3,0.36-6.54,1.53-9.83,1.62c-4.71,0.13-5.92,2.62-5.94,6.71c-0.04,9.65-0.21,19.3-0.33,28.95
		c-0.08,6.99-0.73,7.59-7.78,7.65c-3.66,0.03-7.32,0.1-10.98,0.27c-3.55,0.17-5.22-1.25-5.06-4.96c0.42-9.8,0.56-19.61,1.07-29.4
		c0.21-4.14-1.11-5.82-5.44-6.4c-11.62-1.56-11.58-1.8-10.99-13.69c0.16-3.15,0.45-6.32,0.32-9.47c-0.19-4.58,2.06-6.28,6.34-6.25
		c7.99,0.06,15.99,0.02,23.99,0.02C321.87,55.11,321.87,55,321.87,54.88z"/>
</g>
<g id="C">
	<path class="st2" d="M185.82,77.3c-0.48,1.03-0.96,2.06-1.44,3.09c-1.84,1.28-3.11-0.17-4.47-0.98c-1.68-0.99-3.33-1.62-5.03-0.14
		c-1.7,1.48-2,3.35-1.38,5.44c0.09,0.32,0.16,0.67,0.35,0.93c3.28,4.47,4.97,8.83,0.46,13.74c-1.32,1.43-0.11,3.51,1.37,4.81
		c1.43,1.27,3.01,1.19,4.61,0.28c1.61-0.92,2.76-2.37,4.14-3.56c1.47-1.27,2.83-3.02,5.18-1.74c0.21,0.32,0.43,0.64,0.64,0.95
		c0.68,1.88-0.94,2.62-1.88,3.65c-1.67,1.84-3.22,3.77-4.55,5.86c-1.12,1.76-1.87,3.69-0.1,5.42c1.98,1.95,3.94,0.95,5.75-0.46
		c1.56-1.22,2.8-2.81,4.43-3.96c1.26-0.89,2.68-1.58,4.08-0.42c1.29,1.06,0.78,2.53,0.07,3.61c-2.17,3.31-3.39,7.16-5.87,10.29
		c-0.83-0.01-1.68,0.08-2.48-0.05c-19.22-3.28-21.43-5.83-21.31-25.39c0.05-7.81,0.4-15.62,0.82-23.42
		c0.57-10.56,4.92-16.02,15.09-19.13c5.1-1.56,10.31-2.6,15.67-2.73c1.34,2.27,0.12,4.5-0.2,6.71c-0.61,4.13,0.25,8.2,0.24,12.3
		c-1.2,3.09-3.21,2.96-5.49,1.27c-1.74-1.29-3.08-3.03-4.76-4.4c-1.81-1.48-3.89-2.32-5.88-0.65c-2.1,1.76-1.25,3.89,0,5.82
		C184.49,75.4,185.39,76.19,185.82,77.3z"/>
	<path class="st3" d="M192.17,124.1c0.09-3.51,2.27-6.15,3.79-9.05c0.72-1.38,2.86-2.96,1.37-4.19c-1.88-1.56-3.03,1.07-4.33,2.13
		c-1.15,0.94-2.06,2.19-3.22,3.11c-2.3,1.82-4.76,2.41-7.12,0.1c-2.13-2.09-1.82-4.26-0.31-6.71c2.17-3.54,5.15-6.35,7.9-9.37
		c1.23,1.09,2.42,2.23,3.7,3.27c6.17,5,11.68,5.24,17.39-0.13c3.18-2.99,6.55-2.32,9.7-1.59c3.08,0.72,1.97,4.16,2.22,6.49
		c0.4,3.79,0.59,7.61,0.81,11.41c0.19,3.19-1.2,4.99-4.56,5.19C210.38,125.32,201.26,125.47,192.17,124.1z"/>
	<path class="st4" d="M199.07,73.33c-1.43-6.73-1.56-13.4,0.89-19.96c2.68-4.75,5.72-9.13,9.97-12.73c2.64-2.24,4.11-1.66,5.88,0.79
		c2.39,3.31,2.43,7.05,2.31,10.85c0.41,2.85-0.84,5.29-2.51,7.26c-4.54,5.37-9.52,10.35-14.57,15.26
		C199.98,74.86,198.97,74.84,199.07,73.33z"/>
	<path class="st2" d="M201.15,74.26c1.94-3.28,4.47-6.11,7.31-8.58c4.29-3.73,7.61-8.08,9.66-13.39c7.75,0.17,7.81,0.18,7.02,7.88
		c-0.56,5.43-1.31,10.83-1.96,16.25c-0.2,1.67-0.43,3.31-2.36,3.97c-3.08-7.33-5.56-9.58-10.09-8.81c-5.61,0.96-7.2,5.19-7.83,10.38
		c-2.39-0.84-3.51-2.89-5.01-4.5C198.21,75.61,199.99,75.25,201.15,74.26z"/>
	<path class="st3" d="M189.6,99.16c-3.24,0.23-4.62,3.04-6.64,4.89c-2.54,2.32-5.11,3.99-8.23,1.2c-2.98-2.67-3.31-5.8-0.3-8.61
		c2.69-2.51,2.24-4.71,0.24-7.27c-1-1.29-1.81-2.79-2.39-4.31c-1.06-2.75-0.47-5.26,1.9-7.11c2.39-1.87,4.69-1.05,6.75,0.67
		c1.04,0.87,2.01,1.75,3.46,1.76C183.44,87.39,186.13,93.38,189.6,99.16z"/>
	<path class="st3" d="M201.15,74.26c-0.65,1.51-1.79,2.53-3.27,3.19c-3.99-2.25-7.97-5.62-12.06-0.15c-3.43-0.98-4.46-3.63-4.61-6.8
		c-0.09-1.88,0.99-3.23,2.63-3.83c3.22-1.16,5.48,0.41,7.91,2.54c2.04,1.79,2.98,6.21,7.31,4.12
		C199.58,74.06,200.25,74.42,201.15,74.26z"/>
</g>
<g id="N">
	<path class="st4" d="M496.1,111.11c-0.04,1.65,0.03,3.32-0.14,4.96c-0.81,7.82-6.1,10.95-13.61,8.28c-3.11-1.1-3.89-3.54-3.92-6.25
		c-0.21-16.44-0.42-32.87-0.37-49.31c0.02-6.07,1.77-6.98,7.77-7.96c7.36-1.2,11.74,1.76,14.34,8.28
		c-2.45,6.24-1.82,8.86,3.57,12.72c3.33,2.39,6.54,5.08,10.69,6.06c2.43,2.17,4,1.9,4.39-1.58c0.78-6.85,1.58-13.7,2.33-20.56
		c0.2-1.8,0.09-3.68,2.2-4.52c1.49,1.47,1.16,3.38,1.25,5.18c0.4,8.57,3.79,16.1,7.95,23.4c1.56,2.74,2.87,2.93,4.41-0.01
		c2.31-4.43,4.67-8.82,6.11-13.64c0.35-1.18,0.13-2.8,2-3c-0.15,15.34-0.22,30.69-1.66,45.99c-1.21-0.9-1.11-2.3-1.39-3.57
		c-1.03-4.52-4.07-6.67-8.61-6.12c-4.26,0.51-6.82,3.78-6.72,8.32c0.04,2.12,1.53,4.08,0.66,6.28c-6.36-2.77-10.39-8.25-15.06-12.97
		c3.03-3.06,7.4-3.6,10.9-5.81c4.54-2.86,4.71-3.73,0.19-6.22c-6.64-3.65-13.78-5.91-21.31-6.64c-5.15-0.5-10.02,2.6-11.2,6.61
		C489.39,104.05,491.17,108.16,496.1,111.11z"/>
	<path class="st5" d="M545.06,73.17c-1.4,7.02-4.92,13.1-8.21,19.34c-1.96,3.73-3.09,1.88-4.24-0.02
		c-5.79-9.6-10.28-19.62-9.26-31.25c5.67-2.15,11.62-2.04,17.52-1.96c2.19,0.03,3.37,1.84,3.74,4.03
		C545.16,66.59,545.71,69.85,545.06,73.17z"/>
	<path class="st5" d="M496.1,111.11c-2.13,1.59-3.31-0.04-4.53-1.37c-3.21-3.49-3.04-8.01-1.77-11.72
		c1.42-4.14,5.31-6.96,10.03-6.85c10.14,0.23,19.39,3.54,27.84,9.09c2.04,1.34,1.64,2.55-0.21,3.75c-4.74,3.06-9.63,5.79-15.18,7.09
		c-3.07-2.97-6.14-5.94-9.2-8.92c-1.31-1.28-2.69-2.83-4.67-2.16c-2.16,0.72-1.76,2.91-1.89,4.68
		C496.34,106.83,496.24,108.97,496.1,111.11z"/>
	<path class="st5" d="M527.34,124.07c-2.04-3.61-3.12-7.4-1.08-11.31c2.07-3.97,6.57-5.76,11.05-4.52c5.65,1.56,6.55,5.9,6.09,10.92
		C541.15,126.74,535.58,128.44,527.34,124.07z"/>
	<path class="st6" d="M514.44,87.9c-0.49,0.81-1.14,1.14-2.06,0.67c-4.71-2.41-9.36-4.97-12.92-8.96
		c-3.24-3.65-2.84-7.57,0.71-10.49C504.93,75.38,509.68,81.64,514.44,87.9z"/>
</g>
<g id="A_00000049926453273374498880000006845999302925297572_">
	<path class="st7" d="M431.86,49.32c1.91-7.31,6.2-11.09,13.01-11.78c5.27-0.53,10.58-0.58,15.85-1.03c2.5-0.21,3.11,0.74,3.04,3.07
		c-0.24,7.2-4.22,10.93-11.53,10.4C445.63,49.52,439.04,48.92,431.86,49.32z"/>
	<path class="st1" d="M451.51,53.38c15.71-0.83,17.25,0.68,17.14,16.81c-1.14,1.15-2.65,1.48-4.09,1.25
		c-7.17-1.12-12.7,1.68-17.27,6.94c-2.79,1.22-3.07,3.91-3.9,6.37c-1.21,3.61-0.74,7.88-4.06,10.68c-2.9-0.18-2.44,1.92-2.48,3.67
		c-0.13,5.71,0.24,11.43-0.13,17.15c-0.61,0.78-1.34,1.49-1.81,2.35c-4.05,7.26-4.03,7.26-12.38,5.5c-0.15-3.27,2.75-3.87,4.71-5.07
		c2.78-1.7,3.81-3.73,3.36-7.02c-0.74-5.4-0.24-10.87-0.2-16.4c-4.26,3.23-6.71,8.25-11.67,10.49c0.85-10.64,0.88-21.36,2.65-31.92
		c2.37-1.46,3.61,0.55,5.07,1.72c1.39,1.11,2.43,2.61,4.5,4.5c-2.08-8.98,1.62-17.46-2.5-25.33c3.94-1.41,8.04-1.03,12.1-1
		c0.06,0.16,0.21,0.39,0.16,0.46c-6.38,7.47-3.04,16.36-3.48,24.94c4.18-3.73,8.42-7.27,11.81-11.66c1.4-1.81,1.03-4.12,1.17-6.27
		C450.41,58.79,449.47,55.84,451.51,53.38z"/>
	<path class="st1" d="M472.55,119.44c0.07,4.45-1.94,6.41-6.34,6.09c-1.32-0.09-2.65-0.08-3.97-0.05c-4.53,0.12-8.22-0.83-9-6.23
		c-0.15-1.03-1.18-1.94-1.81-2.9c-1.2-4.94-2.49-9.86-5.43-14.14c0.5-1.97,1.86-2.57,3.73-2.37c4.54,4.58,10.3,4.1,16.02,3.95
		c1.89-0.05,3.88-0.99,5.69,0.36"/>
	<path class="st1" d="M451.51,53.38c1.74,10.21-1.46,18.35-10.01,24.37c-1.87,1.32-3.5,2.99-5.39,4.64
		c-1.38-1.98-0.39-4.64-0.55-7.11c-0.17-2.64,0.17-5.32-0.08-7.94c-0.5-5.31-0.05-10.15,5.07-13.27
		C444.14,52.9,447.83,53.22,451.51,53.38z"/>
	<path class="st1" d="M418.72,106.1c3.1-4.76,8.21-7.73,11.21-12.59c0.33-0.54,0.98-1.13,1.61-0.48c0.39,0.4,0.65,1.17,0.58,1.72
		c-0.9,6.59-1,13.13,0.15,19.74c0.38,2.18-1.28,3.91-3.42,5.02c-2.32,1.21-4.79,2.3-6.33,4.61c-3.78,0.31-5.08-1.73-4.83-5.16
		C418.01,114.67,418.38,110.39,418.72,106.1z"/>
	<path class="st1" d="M469.45,78.19c-3.61,8.69-4.65,10.73-19.63,8.71c-2.8-2.27-3.67-5.27-3.3-8.74
		c4.88-9.56,13.72-8.17,22.13-7.98"/>
	<path class="st1" d="M471.45,104.15c-5.27,1.77-10.72,0.98-16.08,0.88c-2.85-0.05-4.25-2.74-5.85-4.8
		c-0.44-3.74-1.7-7.46-0.26-11.25c13.14-3.23,17.47-0.98,21.99,11.13"/>
	<path class="st1" d="M446.5,102.1c4.34,3.82,5.99,8.57,4.93,14.25c-4.89-1.91-9.81-0.85-14.72-0.09c-2.31-2.41-1.01-5.38-1.13-8.08
		c-0.22-5.09-0.06-10.2-0.06-15.31c2.42-0.32,2.47,2.06,3.95,2.3C440.79,98.52,443.08,100.88,446.5,102.1z"/>
	<path class="st1" d="M422.54,61.28c0.44-3.36,1.96-6.03,5.91-6.22c2.8,2.05,4.03,4.11,3.37,8.2c-0.84,5.26-1.02,10.89,0.38,16.28
		c0.27,1.02,0.42,2.14-0.54,2.7c-1.62,0.94-1.7-0.88-2.44-1.59c-2.44-2.37-4.04-5.77-7.84-6.49"/>
	<path class="st1" d="M471.25,100.11c-4.36-9.21-11.51-12.93-21.57-10.93c-1.04-0.91-1.01-1.92-0.29-3c0.17,0,0.33-0.01,0.5,0
		c7.86,0.6,15.52,0.75,19.56-7.99"/>
</g>
<g id="L">
	<path class="st8" d="M356.45,70.38c-1.16-13.59,0.01-14.86,13.64-14.87c12-0.01,11.87,0,12.25,12.06
		c0.33,10.59,1.02,21.17,1.49,31.76c0.14,3.17,0.77,5.95,4.33,6.97c1.13,3.53-1.65,2.9-3.35,2.88c-2.62-0.04-4.53-1.75-6.37-3.44
		c-1.45-1.33-2.64-2.95-5.53-4.55c3.9,5.25,9,8.29,10.15,14c0.23,3.51-1.09,6.32-4.36,7.64c-3.09,1.24-5.81-0.15-8.24-2.16
		c-2.41-2-4.19-4.7-7.57-6.57c0.95,3.85,5.03,5.89,4.19,9.84c-7.76,0.74-9.99-1.17-10.06-8.73c-0.02-1.64,0.13-3.29,0.2-4.93
		c3.23-5.42,7.6-9.97,11.73-14.64c2.92-3.31,2.54-5.73-0.2-8.44c-3.29-3.26-6.12-6.93-9.27-10.3
		C357.72,74.98,356.57,72.98,356.45,70.38z"/>
	<path class="st9" d="M367.1,123.93c-1.68-2.64-3.45-5.22-5-7.93c-0.56-0.98-2.56-1.95-1.05-3.27c1.3-1.14,2.81-0.24,3.95,0.88
		c1.89,1.86,3.77,3.72,5.63,5.61c2.08,2.11,4.51,3.8,7.49,2.8c2.99-1,4-3.72,4.06-6.76c0.46-0.86-0.01-1.6-0.39-2.27
		c-2-3.5-0.97-4.84,2.93-4.21c2.32,0.38,4.12-0.44,5.46-2.35c4.96-0.3,9.93-0.56,14.89-0.91c4.02-0.28,6.07,1.38,6.7,5.49
		c1.49,9.79-0.93,12.82-10.78,12.84C389.68,123.89,378.39,123.91,367.1,123.93z"/>
	<path class="st10" d="M356.45,70.38c2.63,5.21,6.96,9.07,10.74,13.36c1.75,1.98,3.61,3.83,5.05,6.08c0.8,1.25,1.31,2.47,0.17,3.58
		c-5.41,5.31-8.99,12.25-15.17,16.86C356.05,96.99,356.26,83.69,356.45,70.38z"/>
	<path class="st10" d="M390.17,106.44c-0.29,2.67-2.2,2.98-4.29,2.81c-3.57-0.28-5.66,0.32-3.08,4.37c0.38,0.6-0.03,1.24-0.62,1.65
		c-1.72-4.92-5.66-8.09-9.13-11.64c-0.99-1.01-2.72-2.2-1.27-3.7c1.47-1.51,2.66,0.22,3.7,1.19c1.94,1.81,3.61,4,5.78,5.47
		c2.12,1.43,4.79,3.63,6.91-0.29C388.83,106.34,389.5,106.39,390.17,106.44z"/>
</g>
<g id="A">
	<path class="st11" d="M109.58,104.1c0.07-10.36,1.01-20.66,2.2-30.93c4.44,0.24,5.73,4.68,9.64,7.01
		c-0.4-8.72,0.99-17.12-1.95-25.31c5.63-1.12,11.32-1.43,17.04-1.44c-0.29,2.1-2.17,1.68-3.45,2.12c-3.88,1.33-6.11,3.45-5.45,8.08
		c0.74,5.21,0.26,10.52,0.02,16.36c3.5-3.8,6.81-7.03,10.1-10.29c2.05-2.04,2.53-4.48,2.64-7.23c0.13-3.06-0.94-6.33,1.22-9.14
		c0.16-0.02,0.33-0.06,0.49-0.07c15.48-0.62,17.19,1.05,17.3,16.9c-1.08,1.48-2.6,2.21-4.32,1.74c-6.56-1.8-11.58,0.49-15.65,5.59
		c-0.41,0.51-1.03,0.81-1.61,1.14c-2.88,0.92-3.19,3.52-3.96,5.89c-1.66,5.07-1.24,10.53-2.97,15.58c-3.09,0.08-1.95-2.79-3.21-4.42
		c0.29,6.96,0.43,13.69-0.14,20.4c-0.72,0.87-1.59,1.67-2.14,2.64c-4.01,7.06-4.33,7.21-12.76,5.32c0.34-3.16,3.19-3.94,5.26-5.39
		c1.69-1.19,3.7-2.48,3.2-4.63c-1.44-6.15,1.05-12.21,0-18.95c-2.52,2.17-4.38,4.45-6.56,6.37
		C113.1,102.67,112.03,104.7,109.58,104.1z"/>
	<path class="st4" d="M161.64,101.05c1.37,6.51,1.26,13.11,1.19,19.7c-0.04,3.53-2.07,5.04-5.45,4.9c-2.32-0.09-4.63-0.4-6.95-0.39
		c-3.23,0.01-5.44-1.12-6.1-4.51c-0.36-1.85-1.61-3.22-2.72-4.65c-1.41-4.71-2.29-9.64-5.34-13.72c0.96-1.92,2.12-3.58,4.63-3.34
		C146.63,104.96,155.25,105.79,161.64,101.05z"/>
	<path class="st5" d="M141.6,53.33c1.91,10.47-1.67,18.67-10.38,24.63c-1.81,1.24-2.26,5.08-4.63,4.08
		c-2.41-1.02,0.28-3.78,0.08-5.85c-0.46-4.74,0.45-9.54-0.63-14.3c-0.74-3.27,2.69-7.02,6.71-7.68c1.27-0.21,2.68,0.31,3.77-0.77
		C138.21,53.4,139.9,53.37,141.6,53.33z"/>
	<path class="st5" d="M109.58,104.1c4.55-3.28,7.94-7.79,12.09-11.56c1.51,1.33,0.76,2.92,0.93,4.32
		c0.69,5.72-2.05,11.39-0.08,17.19c0.71,2.09-0.67,3.93-2.64,4.84c-2.75,1.28-4.96,3.25-7.25,5.14c-2.88,0.26-4.51-1.16-4.29-3.93
		C108.76,114.77,108.2,109.35,109.58,104.1z"/>
	<path class="st5" d="M137.4,78.54c4.21-6.42,9.4-10.62,17.67-7.68c1.6,0.57,2.84-0.68,4.32-0.69c0.11,1.89,0.22,3.78,0.33,5.67
		c0.38,6.97-3.56,11.55-10.23,11.68c-3.13,0.06-6.31,0.47-9.37-0.65C137.73,84.58,136.73,81.83,137.4,78.54z"/>
	<path class="st5" d="M161.64,101.05c-0.26,0.91-0.24,2.13-0.84,2.69c-4.19,3.97-17.8,0.85-20.18-4.54
		c-2.13-2.71-1.51-5.73-1.01-8.74c3.98-4.15,13.89-3.92,17.29,0.44c1.95,2.5,3.52,5.22,4.65,8.2
		C161.58,99.75,161.61,100.4,161.64,101.05z"/>
	<path class="st5" d="M136.61,102.1c4.3,3.73,5.97,8.39,4.99,14c-4.69-1.73-9.38-0.33-14.07-0.03c-1.59-0.19-1.46-1.02-1.33-2.41
		c0.56-6.03,1.01-12.08-0.29-18.1c-0.23-1.05-0.85-2.49,0.73-2.9c1.3-0.34,1.97,0.94,2.56,1.9c1.03,1.69-0.46,4.03,1.39,5.53
		C133.04,99.43,134.88,100.6,136.61,102.1z"/>
	<path class="st6" d="M119.48,54.87c2.73,2.77,3.4,6.09,3.21,9.91c-0.25,5.1-0.02,10.23,0.11,15.34c0.03,0.99,0.54,2.08-0.69,2.52
		c-1.28,0.46-1.51-0.93-2.16-1.57c-2.72-2.64-5.45-5.27-8.17-7.91c0.35-3.89,0.47-7.82,1.1-11.67
		C113.47,57.9,115.14,54.95,119.48,54.87z"/>
	<path class="st12" d="M161.55,99.11c-1.39-1.6-2.9-3.12-4.16-4.82c-4.03-5.43-10.05-6.91-16.87-4.02c-2.4-0.98-2.03-2.48-0.78-4.14
		c2.63,0,5.26,0.01,7.9,0.01c7.17,0,10.59-2.91,12.08-10.29C160.85,83.55,161.5,91.3,161.55,99.11z"/>
</g>
<g id="A_00000084492943490207894360000007565670154808008115_">
	<path class="st11" d="M232.24,103.8c0.07-10.36,1.01-20.66,2.2-30.93c4.44,0.24,5.73,4.68,9.64,7.01
		c-0.4-8.72,0.99-17.12-1.95-25.31c5.63-1.12,11.32-1.43,17.04-1.44c-0.29,2.1-2.17,1.68-3.45,2.12c-3.88,1.33-6.11,3.45-5.45,8.08
		c0.74,5.21,0.26,10.52,0.02,16.36c3.5-3.8,6.81-7.03,10.1-10.29c2.05-2.04,2.53-4.48,2.64-7.23c0.13-3.06-0.94-6.33,1.22-9.14
		c0.16-0.02,0.33-0.06,0.49-0.07c15.48-0.62,17.19,1.05,17.3,16.9c-1.08,1.48-2.6,2.21-4.32,1.74c-6.56-1.8-11.58,0.49-15.65,5.59
		c-0.41,0.51-1.03,0.81-1.61,1.14c-2.88,0.92-3.19,3.52-3.96,5.89c-1.66,5.07-1.24,10.53-2.97,15.58c-3.09,0.08-1.95-2.79-3.21-4.42
		c0.29,6.96,0.43,13.69-0.14,20.4c-0.72,0.87-1.59,1.67-2.14,2.64c-4.01,7.06-4.33,7.21-12.76,5.32c0.34-3.16,3.19-3.94,5.26-5.39
		c1.69-1.19,3.7-2.48,3.2-4.63c-1.44-6.15,1.05-12.21,0-18.95c-2.52,2.17-4.38,4.45-6.56,6.37
		C235.76,102.37,234.69,104.4,232.24,103.8z"/>
	<path class="st4" d="M284.29,100.75c1.37,6.51,1.26,13.11,1.19,19.7c-0.04,3.53-2.07,5.04-5.45,4.9c-2.32-0.09-4.63-0.4-6.95-0.39
		c-3.23,0.01-5.44-1.12-6.1-4.51c-0.36-1.85-1.61-3.22-2.72-4.65c-1.41-4.71-2.29-9.64-5.34-13.72c0.96-1.92,2.12-3.58,4.63-3.34
		C269.29,104.65,277.9,105.49,284.29,100.75z"/>
	<path class="st5" d="M264.25,53.03c1.91,10.47-1.67,18.67-10.38,24.63c-1.81,1.24-2.26,5.08-4.63,4.08
		c-2.41-1.02,0.28-3.78,0.08-5.85c-0.46-4.74,0.45-9.54-0.63-14.3c-0.74-3.27,2.69-7.02,6.71-7.68c1.27-0.21,2.68,0.31,3.77-0.77
		C260.87,53.1,262.56,53.06,264.25,53.03z"/>
	<path class="st5" d="M232.24,103.8c4.55-3.28,7.94-7.79,12.09-11.56c1.51,1.33,0.76,2.92,0.93,4.32
		c0.69,5.72-2.05,11.39-0.08,17.19c0.71,2.09-0.67,3.93-2.64,4.84c-2.75,1.28-4.96,3.25-7.25,5.14c-2.88,0.26-4.51-1.16-4.29-3.93
		C231.41,114.46,230.85,109.05,232.24,103.8z"/>
	<path class="st5" d="M260.06,78.23c4.21-6.42,9.4-10.62,17.67-7.68c1.6,0.57,2.84-0.68,4.32-0.69c0.11,1.89,0.22,3.78,0.33,5.67
		c0.38,6.97-3.56,11.55-10.23,11.68c-3.13,0.06-6.31,0.47-9.37-0.65C260.38,84.27,259.38,81.53,260.06,78.23z"/>
	<path class="st5" d="M284.29,100.75c-0.26,0.91-0.24,2.13-0.84,2.69c-4.19,3.97-17.8,0.85-20.18-4.54
		c-2.13-2.71-1.51-5.73-1.01-8.74c3.98-4.15,13.89-3.92,17.29,0.44c1.95,2.5,3.52,5.22,4.65,8.2
		C284.23,99.45,284.26,100.1,284.29,100.75z"/>
	<path class="st5" d="M259.26,101.8c4.3,3.73,5.97,8.39,4.99,14c-4.69-1.73-9.38-0.33-14.07-0.03c-1.59-0.19-1.46-1.02-1.33-2.41
		c0.56-6.03,1.01-12.08-0.29-18.1c-0.23-1.05-0.85-2.49,0.73-2.9c1.3-0.34,1.97,0.94,2.56,1.9c1.03,1.69-0.46,4.03,1.39,5.53
		C255.69,99.13,257.53,100.3,259.26,101.8z"/>
	<path class="st6" d="M242.13,54.57c2.73,2.77,3.4,6.09,3.21,9.91c-0.25,5.1-0.02,10.23,0.11,15.34c0.03,0.99,0.54,2.08-0.69,2.52
		c-1.28,0.46-1.51-0.93-2.16-1.57c-2.72-2.64-5.45-5.27-8.17-7.91c0.35-3.89,0.47-7.82,1.1-11.67
		C236.12,57.6,237.8,54.65,242.13,54.57z"/>
	<path class="st12" d="M284.2,98.8c-1.39-1.6-2.9-3.12-4.16-4.82c-4.03-5.43-10.05-6.91-16.87-4.02c-2.4-0.98-2.03-2.48-0.78-4.14
		c2.63,0,5.26,0.01,7.9,0.01c7.17,0,10.59-2.91,12.08-10.29C283.5,83.25,284.15,91,284.2,98.8z"/>
</g>
</svg>
